<mxfile host="app.diagrams.net" modified="2024-07-05T14:08:14.131Z" agent="Mozilla/5.0 (Macintosh; Intel Mac OS X 10_15_7) AppleWebKit/537.36 (KHTML, like Gecko) Chrome/126.0.0.0 Safari/537.36" etag="TKYoCM5Z16tHAnOqq_gb" version="24.6.4" type="device">
  <diagram name="Page-1" id="QWUYAveh9AQsnDhSLTPf">
    <mxGraphModel dx="1700" dy="1028" grid="0" gridSize="10" guides="1" tooltips="1" connect="1" arrows="1" fold="1" page="0" pageScale="1" pageWidth="850" pageHeight="1100" math="0" shadow="0">
      <root>
        <mxCell id="0" />
        <mxCell id="1" parent="0" />
        <mxCell id="TurjnNTokbjzqOslJvng-5" value="" style="shape=image;verticalLabelPosition=bottom;labelBackgroundColor=default;verticalAlign=top;aspect=fixed;imageAspect=0;image=data:image/png,iVBORw0KGgoAAAANSUhEUgAAAr4AAAFxCAMAAACiD1u7AAAABGdBTUEAALGPC/xhBQAAAAFzUkdCAK7OHOkAAAAgY0hSTQAAeiYAAICEAAD6AAAAgOgAAHUwAADqYAAAOpgAABdwnLpRPAAAADlQTFRF////AAAAAAAAAAAAAAAAAAAAAAAAAAAAAAAAAAAAAAAAAAAAAAAAAAAAAAAAAAAAAAAAAAAA////AuJdXgAAABF0Uk5TAAAwQCBggL/fz69QEI+f73CiEHkmAAAAAWJLR0QAiAUdSAAAAAlwSFlzAAALEwAACxMBAJqcGAAAHCRJREFUeNrtnW2DqjoMhO+KgiiC+///7D37DjppkwIN2Hm+nqOLzFDSNE3/+48QQgghhBBCCCGEEEIIIYQQQgghhBBCCCGEEEIIIYQQQgghhBBCCCGEEEIIIYQQQgghhBBCCCGEEEIIIYQQQgghhBBCCCGEEEIIIeSBNxOHqqqOto8UgLeGBaNU6Hiqm/P7D+2lvnbeptkO3hoWjEae6+3PuX+0NcfhL7w1LJioNscaeffbwSeOwW+0ryMRZY79e5ChpoFpXz+CusTM+2Vgb/e4461hwYRkuQ9x9/7jXHn7xxlvDQtGFuXYqMz7wa3sCMJbw4IRNbnqht7vOdzB20KeeGtYMJIktcG8HxHw1dtDjnhrWDCCIoo52wMnbxP54a1hwWBB7O4t2b/eGhYM1CPFvQX711vDgkFypLm3XP96a1gwQI17onvfh0LzD94aFsyzGFWqe9/fz2Xmf701LJgnLbpzun3fL95OcsFbw4J50uIyw72Fhr/eGhbMoxQzQofP8LfE8MFbw4J5lGJO6PBB7+0l2rckHpRIzjr8UuAWDG8NC+ZBiUCdztCfvhJj1T0UHxc4/HprWDBTIU6iK8+TSVlXyz4vb/j11rBgpkJIke9wf5Ssu3H4/cFbw4KZ6CClHWA5r1QQXF7ywVvDgpnoIBQ7tNiQB8G/xeV+vTUsmIkO2I+tJJvg3+KW3rw1LJixDFc8aZODgQMefr3tlBtvDQtmLAOejYX2EdfmT7wi3hoWzFiG1p5IgKmK0jo/eGtYMGMZ4FAaziPARHHj7afMeGtYMCMVYNoslsVFw+/g7afMeGtYMCMV4Ega20AB4+XCMr/eGhbMSIU6ZSCFyYfC5m7eGhbMSAU0kMbDWNqX9vVjpALqaRZPIqBP3aOfeim8NSyYiBHT7FtY5sxbw4KJGDEeBvS0r7eGBTNSIc2+F9rXW8OCGanA4CERbw0LZrYR0Uozp24kDyMVUN6XiTMF3hoWzEgFWD4Wk66ifWlfP0YqwHLfWNf0W4rnXwxvDQtmpAJc/41tnUAbLliyQzIxlgHZN7LvnQWTb7SvI2MZGrMXO7jbrbC8Ge3rx1gGvPUnFP3atxe9It4aFsxYBrzzMtAzHTflKS30pX39mOiAm+y0UvW5sNG4uDY73hoWzEQHofFTi6dvldCmpLgTCr01LJiJDsJw+j6gaFbqpXr2dlN2vDUsmKkQ4incT4duH8T/asw7dFV9a5r23zPSNJf6tMdpn7eGBTMVQm6QOtzGEUQVOPrNsk/z2j+H2819b+dreWtYMA9KhM4GaG/X6vh2qE596H/pJ25VLzUJPt931STYW8OCeVDi+j6TQWu8U/gUjX5HQ7C3hgXzKEWjtKmEMvI9xY+AuexmBPbWsGAepTgoLBpAd67moVV92W0n7U68NSyYJy1qlbMkNIkD+VyBp4dhH3kIbw0L5lkM3cgojJcKsZVDr/4L3fHWsGCexTgOBntNaRVan2xf3+wggPDWsGCAGsnZB82hLOZzD9vtpyC8NSwYJMfJarFv9yqM1q/ztbRvoUA91HOrCYp5VoJ7d+Bfbw0LZjmbKc7DSjwxeesnxXlrWDBLGU0zRCYGJYGK423grWHBiFazJQjOCvce0lMa266A99awYGSzxZd1/7gohsduTkJ50yd1emtYMAG7qSdwg6qnWdp88OdPbLkAwlvDggnJUukG4EZlrUr1XfIf8fYo7btFwsLU8XBVW5cwJ3T4YMM76Lw1LJiIMl0dHoFbbVCanHX4fUy8TUr7bhCF8S6So4ZeXxEWegrO/b36x6kOFhtvd/bmrWHBaOQ53i8D8NzVkI0NDL7jfRXdXbb5dodfbw0LRivRY97AGIqKrnzaUyEnnDc7/HprWDBaiR6r2G2F5FLaYQBPQScFK5tNPnhrWDB57CvUUAjte6QNH1vN/XprWDB57IsDArGUQYiUt3rii7eGBZPFvrgAPrCShkdrzWYO2rcostgXrxeHZn94kWOjhWfeGhZMFvtCMwZPzcD79Te68uatYcHksG+XMBGD4cNG9x17a1gwOewL02aREt4j+sxGU2feGhZMDvvCrRuxL0DZ340eO+CtYcHksC/K40aXgGHyzNuo3hyqU13XzT82GkcJ7Nq+qBInuv0HRg/7aBq1Cof7ZTwD3mgcJfBy9o13olzOvs0zW997/0D11FJ5Yt8T+IXelzzh5ewb/3zapxB7H8ZRN9mJPVF05n3RE2jfYu2Lt2zRvrTvDuiEaifal/bdPkdpiyDt62rfeO05qlIrzb5yZxfa19W+0bwlXGkuzL6dvHWK9rXY9/AYglmOrkLhW7T4ERZZppWc7da+ga2rtK/WvhXeATxctBaGuydin4VTlrSbt1f7hvok0r4q+177UKeS802T/4cDaWTrRIf+bGK9+k7t24XuPO0bt++xjreJak/RNzos3o0UPcCSh8RGkzu1b7DJMu0bs+9R2aR6qGMGhsNIcPjFk5bEzW77tG9w8KV9I/bVmldjYLj1Pdg0Em82TqxU2Kd9w221aN+QffXdUb+9GBwY8RwkUFWC+0Kklvvu077SgsX59tFSa/Ik075TrvZG6KEDrISjtsRQVsjWp/ZY36V98Q6r9wZdOe07uXNiU74gUg1kJ4Yhgh+ltabUnZq7tC9+5PFLjvYdYToWYDIywAg41CO4R5+ohA8k9+jbpX1h9H/X/1/v65+Q0b4zOvGC44UiHdqfm1vLUXe8wl1gl/ZFS0XSbIH2/SXp5MBfHipxjk30E9NgrguM1cktznZp39Zw1bTvD/PcO/WvMn1xvn3Lcgwu8aUfjrVL+6IbJf1f2vebue4d+/duSF8MTRMbqNP7S76KfcUqPdr3k1lHr/3wPUpWS3yXRrskJ2zevihvJubWad9P4pGqho/x95iWe5OZc67xHu1bWS6a9v1gfuTw7d+unv8lD8zpzkf7epPDvonnvQNSE8cyl+Q790b7+pPBvjOPvVyV86zOvjnt21XfzGyEsl37Hn5+oWEuvb59u/Tz3ldnmOeFTPat6kkbp/dzU6f/mS3at7vWzcQlbX/XKbO+fZeZtq3DzCOxMtj3eBfmqpfEa9+cfQ83nEo69woHr27f5QJfmfM1LZk290A3k32l5GEocXcKPfvDbfyWBf9zvBiuvicz6n2FiqhQ/XXouMh/uo4Fgs/d2vZVhg5t0zSpQcZHSXBSYnn2cYTohor/WRhF5TW/2LHP75PKJH/7SvV88m2O71wYGdjFvvGcWVtXPyIcrjd7buH2+ekE/84/TBPdUOn/CjdCdm+teZz/qvnd7SspIN5m3bab9ueOetg3lnU4P+2JP/SmUbj5+by1lnhY4ChYdEOF/ypUaYjurbTP8c8N8Lav2b2qx3P0MzzsG563neFv69Q/7F/QG7nX8ieXaMSLbij+n0KxqHR+ouVZHKpN2FdQWnLvwfC2/LpLDvYNDr6DWGerVO/xCyr9uN0vcpIbuqFLuNdY13/agH2FQECal9om9J9jjYN9Q4NvaA+bak/cswU75er0eaFz3NANRf9PeIol95rr+k/u9rVF9lqdfvnIz+e37yFwRZHx7xh7ueA2/JUmyxxtH7GwfQ+2k5cTKkROzvYVBlPJvfZp9tA52DcgRLRGPPwbz+KM4BS5N0O/3Pnx6Iaq3SulQ5Pqmw6u9hVeF4LG0ZEJ0XbZ7dvJV6PY4RDyb3D8rAIGON+XPL4Y3VDt75DWq9Oq886do32FdgVCNdQxLb/fZ7evHMOp9ucE/BsZQLsTnPvp+v4tbN8s7v13R/3sa4uNkncuoNTjqvYV8wfKho7yc6roSTatcxma22m5oMFiX5t70+uZwb3KY99M7oWsaV8xdhi0RrpK36BuaGquwFvavsJoKrh3Ri8BQBb7dqvPSwOsaV9RC30/R3H8XjKCXdO+glrCxPOwbG1pDvsKo6nk3oULuNa0r/SgGXpBH6XrXmDFN4d977arX3gTagb7GiP7w/uyrGlfaenIUhIrNXRI782Q077C+0dybzTwPX8dy6pdk4OrmsvW++IhStwFEH0+269fqPyBa9pXGjlNHcWkL0ns5r8wEScY3Su+aj5p7qOvru6q5Rn0Vxa1r9G9wedz6E9/n+t0tYcr2lead9ne+1IEsro1NYSdYO3GGnDkuX6afYYLvfPYF78bRfeGar+bZ1soag9XtK/0qNlmXdJDsIkdvcHrsrpXLm+SWnSfIgZe277C28Va8vwuNBf+qD30s69wsdad6eYS/oyEtOusnbDFuPAiPvAReVe2rzE2koOjQAf9SCvGFe0r/GHrKShC7iy5qemSBJwgTMll90qDb7isPphqW9e+QhZBvlwxExVcCw2m2la0r3BjrW99YYDZROpB/nmCewOnbghPe2wrf7AyBH1gKfsKD47sXmkVq4lEk6Ha2RXtK/xFq0WEUamxfs8ayE7AI00rKyW8WeONKAL+XdO+gnsD79bkcSjwhsluX3MjfuEdtW37mt1rncSPkP27on3NsZG0DNAqZvLypDa7fe2226F9sReDSuERRrUrRByd1rNvgnvxMKRr0iWWH6xn38VGzf3ZF9/toFI4P6hsPSwlF9ezLw7Ug3EAfqSVMyGp9mU9+y4Ws+7Ovti94TgAiqvuH2jJzixhXxwbhaNYGDtoW4NLCx607xygE/BrJxLFQnHVSRpB3bXsK0T2wUuEd0XfGlxaIVnNvovZbmf2xZFoxL3HmT8Rz+pXsi/OxEbmYPBDhrUnPPHLbl/z8cE7yzzcU9yLBxdDhhwPv+vYFw+EsQwCim8sXsB/lXnfOSBJ4NXGMggo9DWlGOH7fB37JrkXjp6mlVMcXq1n33VX3WacB7QcWnGjL0k0kzetrsN3VD77RoNYuORm2sMFJ7fbr3kQvmarNQ9J7oWPum2Dnnp0W8O+8dUV9FdtNdvwAc1fcWZ96ydbIgNLuRd9kbEgHw1OueyrWBtEoatxBEIPKOt956ASV6ESspQxOrpq//Ly9tWsbNeWv4pBw+GK9pVWqm3jprTeYvvpK6ERVzOKoltl7CKIUm+Z7KsRdIFDMuATsJ59pQK5197rluRDNHRaGwL52Vez+ABmMFYJczeJkrayWIZfqcR5E+W+OvsqmrIscYBPpEnULyvEvorpTJP0qfiFr2hfyXqG4Xd/fR4A8WFm5/ZVhPfg6sypz8z2LbLLDiIqFHCJeXXS077xSEd7dca7/eI9zo7fx4xa71T6DYXEwl/gEvOqoqt9o7VxO7Sve4fJcfDd9Hk6TMLSlNjzuqvRF1o6tn98Afui0ZD9feeAbij0b+R5XSL2BRPllSrOoCyRAQXY1zr7zt9dXd5jp3j0zHtof39n4FyiDN3VG/MFw+fcep3aPzrfvvilGB4ZFsg8oEjS7WyLqH8jZ1uI4WSs9cxwW87A0An4oQ2G3yZL6b9irXJ1OCUJh79gTdsaHmVetniLnCwUvtjUk4UUPUaHlU8WguoGc/vIUsbSJnVRwWqbhYLhL/oi41wEvdU8z3ULXX7iuW7KwyiHdc91g7V9oXclmpUYm2khR61m3w6+4UIPHJoRGHP36E/u+1TNhxum8fyPOdY8VRPHPbXti4zv1kH7FxfZaYxfq4HwF/1V29wNvtP2fqbx+MbftJ/6/OSaZxpjdQPRLLpNpjcEFHfFNiUwexYIf9H7xfaAwoDF/UT5erET5dUtub9v3ponyuPsr6wu0sY0OGXcLPT1L/BuBwIeJKrpAcUT4pXtqzhJpr1dfyx4OPW2w6g/+MokJBy4NN+/shNg9COHv9DuhvgGL3CuaV+cPZPDX2R3S+os+1bN7xurG0sHw4EGT5+9Jx4XNtu/shMMW38/0G9V09ts5Q6TeEH/YPkmS3Iw+0b5bxY+CgnSXtPO5Jnr34AiOGoS9UJu1zfxOOZtU/KFrTEQvB/64Td/m5IflMksF2b6N+QEqK7oSHiT1NGvEKGta1/8whPDX/tizoj8TaKif3oLaLZpJdoXlwZI440Q2ukuQ5ofr3w4AM6vSOEvrkJRvmCkpFIG+0azD56ou+DZ7XuwhL/djKvrpOnu2kez4LjQdN6t7gUjOiiHfRcMf5cfyK0nxejtK/xswSo4xFIFh2J0tvrBWHC2LTxzQvW3JnyTC2ez2Hexc5hP0ZOS7MxZP444AfpKCH+FynzF6CTf3NXti+NC4ZptxzuP/4o8L89j34X8+/FLj8n5NQH9/N5sX/xWF0ZUIQKI+tda1bfoqZr4ocOOTG2cEMqJZrJvUlr2ke8tY5V9ZUPztSvYV1AMh7/SeyVSnREaGDKcaYzzKzj8lTwQ9u8hZJ1M9l3Cv3/j0N0QAp/j6yHpm4iiTsCehG4REzShY8/CZaUZ7Is9iftNiptv+sATGi7DymXf+fHD+BntdNU5bf2ty/EaKqRI7xkRdwJUF8crclgv1idHapty2PdgCH/F1+ZZPKU8smiQz74z/fvwAxUhcD8ZtbrALozk4TfuBDxphumOQH4cFth3sX0lWewr5FegH8WN4/BE7n83L2qZjPYN7NyMAqKpa1i89kkSechObraqcAL+0TC3H8wv9tepg6+Kwrws9hXyKzDiCY0559v0Ko4nxSQ9p33fDqmTLnxuaOjVCcOpSviA+ahEg32FrCxUNzI/aPv6+tG04lrfdOmXPPbFbw0Y/oY2j33qfKs/23Kcpk0OZLLaV72ZRyPDx9eJLxchnJUO8EvN/WqcgLNn5xR1F7lvi9tXyK/02u+bQ177mvbz/BCaeVuT/YJ/UydvKidgU8Lwd2F1M9lXqEiA4e8SCdTxhWe2rzZp8MsQ3HGLw8XAUiseKVKjB50TsCnh71pW3Vz2FfIraNg5LLvsn92+mvnk6BZE9rTjaUMok4C9lFh4pnRCo/6by1bnZbPvUR/+zpi/owvPb1+9geMNGYw7Vt5S9njPty9WF4e/qf4dwAiYzb6WcrLkACnz2RYhjnV8ZtmeotUIMKyMRALwTicGv1on4BAdhr+po9M1W4s++B/xnByGv4n5/yF/k6gQ4cRle9OsJei3h/8B38+JZw2onYAlg2N+mn/7fB0m8V2FwxHO/qb595q9RV+MQ90gL53VvUzhiyj2WXj3LKb9Q+0EoaIcqpvi339hpq99hTkxLn5I8e8tf4dJDU9xsKUFJLoP0YEUDtlpVZN6J+DsGa7stse/H0UUzvYVYtre8H9D9A4NUlU8/hRLZ0U0pY/WP8Ky/7T+64Yvwik+vNcj2p7wgc93tLd9haQfXhE6GZ/Q/q0U+8ar9+EU1vBX/7B8Ec6e4ZSHLTn+9YZ2ty/OrwhZzIPpCe3FC385+8Y/n/YphOWLhJSukHE21OR/l3e421fIr7SGr8Z8t/Oifed8CmH6IqyutJlY26fwt9erv32FKZkUzWm3ff0UDdC+cz6FsH0RjgjErc6qxZ2/yroN2FfIr4gFUZXCwH+dFGnfOZ9C2L5I2DAlr/gdYyNwPwosN2BfIb8SWMSvIo/oebTuWoZ947XnyBNp9q2eCWXgjhUiWG8RWNxppynGw/M3Q9t0lotGVxy6XHAR0nX8XM5dHoIvk2k4vPCXs290/RceNLvWwYULUNXPP3O43Jc/pc6L7nR7fi+d+3jNwD92bV/0bosWP8JVLQfVLByruu6bTy51Xb2OdX+prnX99QObvr5X2mWkXdsXrgXEvgBVl5jPsMzDauKQGDnsCxfaYyduoc+YTxCmfV+cHPbFbd/Cr1Y4153RaYf2fUly2PfN1iH5Azj4zurTR/u+IlnsezObEadpljzomPZ9BbLYFy/EBnqm45X2xGp12vd1yWJfvNlNqJJ+E0vBE7e60b6vSx77CouOwnnJ0kaGreZRvTUsmDz2lXoeD+BrxKY8G02b0b6OaCV6nH0ZkwBiXWz/OKTKDRkXOB6W9n0xNPIcT5fn4PXcWxwc2Ng47pAa6iaa3KGP9n1dFM4TG/YNvT6ECG1LOPf3r4aFwcLSzQ6+tK8fEWViuwlaralmdx3a7uBL+/oRFkaxFeasjCHmtrXb7uBL+/oRkkW5EbFRJbRmHto561xC2vdVkUXRbwMfVOsJxparD39iqzlf2tcVURPTEQGNohph1qFbGy3WoX2dkSQxNlg5K1rvzuh5nH4oFu370giKmI/nHhT+vVq/9Iet1urQvt5gQVKaCypSA4nZs3ajhZK0rztQj7RZlmINI+mLNz1to31dQXIkDpKa+CHBv5qvpX0LBaiRHKJqhknzo7H1yIH29eRZjBkJAs0Uy3hk3GX77qV9/XgWY056VrMV2NQzNvkcY9q3CJ60mHdkpKoETf0nzhtuCkX7boFHKWYe2HtWvesPyrOqdxA40L6uPEqhbEY8921/ii9J91vPl9G+/jzaaqZ79UnaiIH3Y17a15EHJUKeautr9dG/9XQL/S99ecJVXNs7W47d8sdbw4KZCiEPvkM9Hg5D7bYNw2Z37Z+fhOa++XUK2ncrTIUQI9/b43Aon9hhzHV1VX377hjbXOrT3qxL+7oy0UFKO6B2DGJR2kab8K6It4YFM9FBqEho8ZBYCetnmy4tXwNvDQtmooOxFZmwvLzt2vIV8NawYCZ2xMGAPBfDM73iogdvDQtmLANezA3FAjja2MdS73J4a1gwYxlgMiG4Qx2fALyLOpsF8dawYMYywKE0nMaF4cNmW0GuhLeGBTNSAYa+sfYgaPgtLfj11rBgRirAXRaxLBiMfr39lBlvDQtmpEKd4kTY+6mwuZu3hgUzUgHZNx7G0r60rx8jFdIOfkdbf7Z6hspKeGtYMCMV0uyb9qmXwlvDgokYMR4GXGhfbw0LZqRCmn172tdbw4IZqcDgIRFvDQtmthHRpzh1I3kYqYBWIJg4U+CtYcGMVEB53+j674H2pX39GKkAy2+SFo13tU94Pt4aFsxIBbj+G9s6gfbMs2SHZGIsA7IvCybjeGtYMGMZYOvH8PALG5YUljejff0Yy2Df+lObP/GKeGtYMGMZcFv1QNNI4aRMbzvlxlvDgpnosMxG+S2f37oK3hoWzEQHoXOZ4F/pFIENH569Dt4aFsxEB+nYbNhmRzqkYigs60v7OjIVQup8+nzotnxgd3FNdmhfP6ZCyA1Sz5OQ4FjL5wPtqK/0QnhrWDAPSgQaTw/9d/fS6n6R/1eBgy/t68eDErMPByhw8KV9/XiUIn5kShjNyW6vhreGBfMoRTXPveWlHWhfT560SDtN/ofiWlN/4K1hwTxp0c0JH4pbcPvEW8OCeRZjxrmaujM1Xw5vDQsGqJGcfRj2eCzQAnhrWDBIjj7RvkUGvm+0ryNQjzT/Fleq84O3hgWDBUnxb7HupX39EBSx+7dc99K+fkiSGNO/Q8HupX39EDU5DQb3toXmHL7w1rBgZFGOrdq9tzLzvT94a1gwIVnuugH4XNrO4ke8NSyYoC5HxQxuqMseet9oX0ciysQMTPO+0b6ORLU51nINT3uied9oX0c08lxvyMFtXXS6YYS3hgWjVOh4ujV/Hm4v9ZXj7i/eGhaMTahDVVUFbmaL4K0hIYQQQgghhBBCCCGEEEIIIYQQQgghhBBCCCGEEEIIIYQQQgghhBBCCCGEEEIIIYQQQgghhBBCCCGEEEIIIYQQQgghhBBCCCGEEELI/vgfTlR0jUBDGkUAAAAldEVYdGRhdGU6Y3JlYXRlADIwMTctMDQtMDRUMDk6MTY6NTErMDA6MDCHa4BVAAAAJXRFWHRkYXRlOm1vZGlmeQAyMDE3LTA0LTA0VDA5OjE2OjUxKzAwOjAw9jY46QAAAABJRU5ErkJggg==;fontFamily=Comic Sans MS;fontSize=14;" vertex="1" parent="1">
          <mxGeometry x="680" y="190" width="285.37" height="150" as="geometry" />
        </mxCell>
        <mxCell id="TurjnNTokbjzqOslJvng-13" style="edgeStyle=orthogonalEdgeStyle;rounded=0;sketch=1;hachureGap=4;jiggle=2;curveFitting=1;orthogonalLoop=1;jettySize=auto;html=1;entryX=0.5;entryY=0;entryDx=0;entryDy=0;fontFamily=Comic Sans MS;fontSize=14;" edge="1" parent="1" source="TurjnNTokbjzqOslJvng-6" target="TurjnNTokbjzqOslJvng-9">
          <mxGeometry relative="1" as="geometry" />
        </mxCell>
        <mxCell id="TurjnNTokbjzqOslJvng-6" value="Consumer Loop" style="rounded=1;whiteSpace=wrap;html=1;sketch=1;hachureGap=4;jiggle=2;curveFitting=1;fontFamily=Comic Sans MS;fontSize=14;" vertex="1" parent="1">
          <mxGeometry x="250" y="210" width="190" height="110" as="geometry" />
        </mxCell>
        <mxCell id="TurjnNTokbjzqOslJvng-7" value="" style="endArrow=classic;html=1;rounded=0;sketch=1;hachureGap=4;jiggle=2;curveFitting=1;fontFamily=Comic Sans MS;exitX=1;exitY=0.5;exitDx=0;exitDy=0;entryX=0;entryY=0.5;entryDx=0;entryDy=0;fontSize=14;" edge="1" parent="1" source="TurjnNTokbjzqOslJvng-6" target="TurjnNTokbjzqOslJvng-5">
          <mxGeometry width="50" height="50" relative="1" as="geometry">
            <mxPoint x="470" y="300" as="sourcePoint" />
            <mxPoint x="520" y="250" as="targetPoint" />
          </mxGeometry>
        </mxCell>
        <mxCell id="TurjnNTokbjzqOslJvng-8" value="Poll Events" style="edgeLabel;html=1;align=center;verticalAlign=middle;resizable=0;points=[];sketch=1;hachureGap=4;jiggle=2;curveFitting=1;fontFamily=Comic Sans MS;fontSize=14;" vertex="1" connectable="0" parent="TurjnNTokbjzqOslJvng-7">
          <mxGeometry x="0.0167" y="-1" relative="1" as="geometry">
            <mxPoint y="1" as="offset" />
          </mxGeometry>
        </mxCell>
        <mxCell id="TurjnNTokbjzqOslJvng-11" style="edgeStyle=orthogonalEdgeStyle;rounded=0;sketch=1;hachureGap=4;jiggle=2;curveFitting=1;orthogonalLoop=1;jettySize=auto;html=1;exitX=1;exitY=0.5;exitDx=0;exitDy=0;entryX=0;entryY=0.5;entryDx=0;entryDy=0;fontFamily=Comic Sans MS;fontSize=14;" edge="1" parent="1" source="TurjnNTokbjzqOslJvng-9" target="TurjnNTokbjzqOslJvng-10">
          <mxGeometry relative="1" as="geometry" />
        </mxCell>
        <mxCell id="TurjnNTokbjzqOslJvng-12" value="Yes&lt;br style=&quot;font-size: 14px;&quot;&gt;Invoke Handler" style="edgeLabel;html=1;align=center;verticalAlign=middle;resizable=0;points=[];sketch=1;hachureGap=4;jiggle=2;curveFitting=1;fontFamily=Comic Sans MS;fontSize=14;" vertex="1" connectable="0" parent="TurjnNTokbjzqOslJvng-11">
          <mxGeometry x="-0.0783" y="-1" relative="1" as="geometry">
            <mxPoint y="1" as="offset" />
          </mxGeometry>
        </mxCell>
        <mxCell id="TurjnNTokbjzqOslJvng-14" style="edgeStyle=orthogonalEdgeStyle;rounded=0;sketch=1;hachureGap=4;jiggle=2;curveFitting=1;orthogonalLoop=1;jettySize=auto;html=1;entryX=0;entryY=0.5;entryDx=0;entryDy=0;fontFamily=Comic Sans MS;fontSize=14;" edge="1" parent="1" source="TurjnNTokbjzqOslJvng-9" target="TurjnNTokbjzqOslJvng-6">
          <mxGeometry relative="1" as="geometry">
            <Array as="points">
              <mxPoint x="345" y="680" />
              <mxPoint x="130" y="680" />
              <mxPoint x="130" y="265" />
            </Array>
          </mxGeometry>
        </mxCell>
        <mxCell id="TurjnNTokbjzqOslJvng-15" value="No" style="edgeLabel;html=1;align=center;verticalAlign=middle;resizable=0;points=[];sketch=1;hachureGap=4;jiggle=2;curveFitting=1;fontFamily=Comic Sans MS;fontSize=14;" vertex="1" connectable="0" parent="TurjnNTokbjzqOslJvng-14">
          <mxGeometry x="-0.8341" y="-2" relative="1" as="geometry">
            <mxPoint y="1" as="offset" />
          </mxGeometry>
        </mxCell>
        <mxCell id="TurjnNTokbjzqOslJvng-9" value="Is Message?" style="rhombus;whiteSpace=wrap;html=1;sketch=1;hachureGap=4;jiggle=2;curveFitting=1;fontFamily=Comic Sans MS;fontSize=14;" vertex="1" parent="1">
          <mxGeometry x="285" y="400" width="120" height="120" as="geometry" />
        </mxCell>
        <mxCell id="TurjnNTokbjzqOslJvng-17" style="edgeStyle=orthogonalEdgeStyle;rounded=0;sketch=1;hachureGap=4;jiggle=2;curveFitting=1;orthogonalLoop=1;jettySize=auto;html=1;entryX=0;entryY=0.5;entryDx=0;entryDy=0;fontFamily=Comic Sans MS;fontSize=14;" edge="1" parent="1" source="TurjnNTokbjzqOslJvng-10" target="TurjnNTokbjzqOslJvng-16">
          <mxGeometry relative="1" as="geometry" />
        </mxCell>
        <mxCell id="TurjnNTokbjzqOslJvng-10" value="Handler" style="rounded=1;whiteSpace=wrap;html=1;sketch=1;hachureGap=4;jiggle=2;curveFitting=1;fontFamily=Comic Sans MS;fontSize=14;" vertex="1" parent="1">
          <mxGeometry x="600" y="430" width="120" height="60" as="geometry" />
        </mxCell>
        <mxCell id="TurjnNTokbjzqOslJvng-18" style="edgeStyle=orthogonalEdgeStyle;rounded=0;sketch=1;hachureGap=4;jiggle=2;curveFitting=1;orthogonalLoop=1;jettySize=auto;html=1;entryX=0;entryY=0.5;entryDx=0;entryDy=0;fontFamily=Architects Daughter;fontSource=https%3A%2F%2Ffonts.googleapis.com%2Fcss%3Ffamily%3DArchitects%2BDaughter;" edge="1" parent="1" source="TurjnNTokbjzqOslJvng-16" target="TurjnNTokbjzqOslJvng-6">
          <mxGeometry relative="1" as="geometry">
            <Array as="points">
              <mxPoint x="905" y="788" />
              <mxPoint x="131" y="788" />
              <mxPoint x="131" y="265" />
            </Array>
          </mxGeometry>
        </mxCell>
        <mxCell id="TurjnNTokbjzqOslJvng-16" value="Store Offsets" style="shape=parallelogram;perimeter=parallelogramPerimeter;whiteSpace=wrap;html=1;fixedSize=1;sketch=1;hachureGap=4;jiggle=2;curveFitting=1;fontFamily=Comic Sans MS;fontSize=14;" vertex="1" parent="1">
          <mxGeometry x="845" y="430" width="120" height="60" as="geometry" />
        </mxCell>
      </root>
    </mxGraphModel>
  </diagram>
</mxfile>
